<svg width="42" height="42" viewBox="0 0 42 42" fill="none" xmlns="http://www.w3.org/2000/svg">
<circle cx="21" cy="21" r="21" fill="#FFB3C6"/>
<path d="M22.0844 35.9702C24.6561 35.7586 27.1735 34.8851 29.2786 33.4745C30.2497 32.8234 30.7923 32.3785 31.5844 31.581C32.5827 30.5881 33.326 29.6116 34.053 28.3529C34.9482 26.7958 35.7403 24.414 35.8488 22.9328C35.8759 22.5639 35.8651 22.4445 35.762 22.1841C35.5992 21.7501 35.2086 21.3323 34.7746 21.1316L34.4328 20.9742L20.8963 20.9742H7.35976L7.04509 21.1316C6.87147 21.2184 6.6219 21.4083 6.48626 21.5548C6.0251 22.0485 5.91659 22.4988 6.05765 23.3614C6.55137 26.4268 8.05422 29.3674 10.2624 31.581C12.6713 33.9953 15.9103 35.5524 19.2958 35.9214C20.0336 36.0027 21.3954 36.0245 22.0844 35.9702ZM19.0245 31.6949C17.8472 31.4725 17.0225 31.1904 15.9048 30.6315C13.8866 29.617 12.107 27.794 11.0979 25.6944C10.9134 25.3092 10.7398 24.924 10.7235 24.8426L10.6856 24.6907L20.9451 24.6907C26.5876 24.6907 31.2046 24.707 31.2046 24.7341C31.2046 24.8589 30.342 26.5082 30.0327 26.9694C28.7903 28.8412 26.989 30.3006 24.9165 31.1144C24.298 31.3586 23.1587 31.657 22.4317 31.7655C21.6504 31.8848 19.8166 31.8469 19.0245 31.6949Z" fill="#FDFCFC"/>
<path d="M35.9702 19.7771C35.7586 17.2054 34.8851 14.688 33.4745 12.5829C32.8234 11.6118 32.3785 11.0692 31.581 10.2771C30.5881 9.27882 29.6116 8.53553 28.3529 7.80852C26.7958 6.91332 24.414 6.12121 22.9328 6.0127C22.5639 5.98557 22.4445 5.99642 22.1841 6.09951C21.7501 6.26227 21.3323 6.6529 21.1316 7.08694L20.9742 7.42874L20.9742 20.9652L20.9742 34.5017L21.1316 34.8164C21.2184 34.99 21.4083 35.2396 21.5548 35.3752C22.0485 35.8364 22.4988 35.9449 23.3614 35.8039C26.4268 35.3101 29.3674 33.8073 31.581 31.5991C33.9953 29.1902 35.5524 25.9512 35.9214 22.5658C36.0027 21.8279 36.0245 20.4661 35.9702 19.7771ZM31.6949 22.837C31.4725 24.0144 31.1904 24.839 30.6316 25.9567C29.617 27.9749 27.794 29.7545 25.6944 30.7636C25.3092 30.9481 24.924 31.1217 24.8426 31.138L24.6907 31.1759L24.6907 20.9164C24.6907 15.2739 24.707 10.6569 24.7341 10.6569C24.8589 10.6569 26.5082 11.5195 26.9694 11.8288C28.8412 13.0712 30.3006 14.8725 31.1144 16.945C31.3586 17.5635 31.657 18.7028 31.7655 19.4298C31.8848 20.2111 31.8469 22.0449 31.6949 22.837Z" fill="#FDFCFC"/>
</svg>
